<svg xmlns="http://www.w3.org/2000/svg" version="1.1" xmlnsXlink="http://www.w3.org/1999/xlink" xmlnssvgjs="http://svgjs.dev/svgjs" width="1000" height="174" viewBox="0 0 1000 174"><g transform="matrix(1,0,0,1,-0.6060606060606233,-0.09279264399516762)"><svg viewBox="0 0 396 69" data-background-color="#fdfbe2" preserveAspectRatio="xMidYMid meet" height="174" width="1000" xmlns="http://www.w3.org/2000/svg" xmlnsXlink="http://www.w3.org/1999/xlink"><g id="tight-bounds" transform="matrix(1,0,0,1,0.2400000000000091,0.03679708296360218)"><svg viewBox="0 0 395.52 68.92640583407278" height="68.92640583407278" width="395.52"><g><svg viewBox="0 0 494.0161086076646 86.09110737879568" height="68.92640583407278" width="395.52"><g transform="matrix(1,0,0,1,98.49610860766462,18.6891863983386)"><svg viewBox="0 0 395.52 48.712734582118486" height="48.712734582118486" width="395.52"><g><svg viewBox="0 0 395.52 48.712734582118486" height="48.712734582118486" width="395.52"><g><svg viewBox="0 0 395.52 26.27332136445242" height="26.27332136445242" width="395.52"><g transform="matrix(1,0,0,1,0,0)"><svg width="395.52" viewBox="3.5 -36 556.96 37" height="26.27332136445242" data-palette-color="#cf5c1d"><path d="M3.5-35L20-35Q24.5-35 28.18-33.88 31.85-32.75 34.48-30.55 37.1-28.35 38.55-25.08 40-21.8 40-17.5L40-17.5Q40-13.2 38.55-9.93 37.1-6.65 34.48-4.45 31.85-2.25 28.18-1.13 24.5 0 20 0L20 0 3.5 0 3.5-35ZM20-31.25L10.75-31.25 10.75-3.75 20-3.75Q22.55-3.75 24.78-4.53 27-5.3 28.65-6.98 30.3-8.65 31.28-11.25 32.25-13.85 32.25-17.5L32.25-17.5Q32.25-21.15 31.28-23.75 30.3-26.35 28.65-28.03 27-29.7 24.78-30.48 22.55-31.25 20-31.25L20-31.25ZM76-31.25L52.75-31.25 52.75-19.75 71-19.75 71-16 52.75-16 52.75-3.75 76-3.75 76 0 45.5 0 45.5-35 76-35 76-31.25ZM88.25-3.75L109.75-3.75 109.75 0 81 0 81-35 88.25-35 88.25-3.75ZM121.49-35L121.49 0 114.24 0 114.24-35 121.49-35ZM148.49-2.75L148.49-2.75Q151.89-2.75 155.02-3.93 158.14-5.1 160.99-7.75L160.99-7.75 163.49-4.75Q160.64-2.1 156.59-0.55 152.54 1 147.99 1L147.99 1Q143.29 1 139.52-0.2 135.74-1.4 133.06-3.75 130.39-6.1 128.94-9.55 127.49-13 127.49-17.5L127.49-17.5Q127.49-22 128.92-25.45 130.34-28.9 132.97-31.25 135.59-33.6 139.29-34.8 142.99-36 147.49-36L147.49-36Q152.04-36 156.09-34.45 160.14-32.9 162.99-30.25L162.99-30.25 160.49-27.25Q157.64-29.9 154.52-31.08 151.39-32.25 147.99-32.25L147.99-32.25Q145.29-32.25 142.94-31.38 140.59-30.5 138.89-28.7 137.19-26.9 136.22-24.13 135.24-21.35 135.24-17.5L135.24-17.5Q135.24-13.65 136.22-10.88 137.19-8.1 138.97-6.3 140.74-4.5 143.17-3.63 145.59-2.75 148.49-2.75ZM175.24-35L175.24 0 167.99 0 167.99-35 175.24-35ZM201.24-32.5L201.24-32.5Q198.69-32.5 196.46-31.6 194.24-30.7 192.59-28.85 190.94-27 189.96-24.18 188.99-21.35 188.99-17.5L188.99-17.5Q188.99-13.65 189.96-10.83 190.94-8 192.59-6.15 194.24-4.3 196.46-3.4 198.69-2.5 201.24-2.5L201.24-2.5Q203.79-2.5 206.01-3.4 208.24-4.3 209.89-6.15 211.54-8 212.51-10.83 213.49-13.65 213.49-17.5L213.49-17.5Q213.49-21.35 212.51-24.18 211.54-27 209.89-28.85 208.24-30.7 206.01-31.6 203.79-32.5 201.24-32.5ZM201.24-36L201.24-36Q205.74-36 209.41-34.8 213.09-33.6 215.71-31.25 218.34-28.9 219.79-25.45 221.24-22 221.24-17.5L221.24-17.5Q221.24-13 219.79-9.55 218.34-6.1 215.71-3.75 213.09-1.4 209.41-0.2 205.74 1 201.24 1L201.24 1Q196.74 1 193.04-0.2 189.34-1.4 186.71-3.75 184.09-6.1 182.66-9.55 181.24-13 181.24-17.5L181.24-17.5Q181.24-22 182.66-25.45 184.09-28.9 186.71-31.25 189.34-33.6 193.04-34.8 196.74-36 201.24-36ZM245.23-2.5L245.23-2.5Q247.68-2.5 249.66-3.18 251.63-3.85 253.03-5.28 254.43-6.7 255.21-8.93 255.98-11.15 255.98-14.25L255.98-14.25 255.98-35 263.23-35 263.23-14.25Q263.23-6.55 258.53-2.78 253.83 1 245.23 1L245.23 1Q236.58 1 231.91-2.78 227.23-6.55 227.23-14.25L227.23-14.25 227.23-35 234.48-35 234.48-14.25Q234.48-11.15 235.26-8.93 236.03-6.7 237.43-5.28 238.83-3.85 240.81-3.18 242.78-2.5 245.23-2.5ZM302.73-9.25L302.73-9.25Q302.73-7.1 301.83-5.23 300.93-3.35 298.91-1.98 296.88-0.6 293.66 0.2 290.43 1 285.73 1L285.73 1Q283.08 1 280.56 0.6 278.03 0.2 275.75-0.55 273.48-1.3 271.56-2.38 269.63-3.45 268.23-4.75L268.23-4.75 270.73-7.75Q273.58-5.3 277.38-4.03 281.18-2.75 285.73-2.75L285.73-2.75Q290.78-2.75 292.88-4.15 294.98-5.55 294.98-8L294.98-8Q294.98-9.9 293.33-11.2 291.68-12.5 287.73-13.75L287.73-13.75 278.23-16.75Q273.53-18.25 271.13-20.58 268.73-22.9 268.73-26.5L268.73-26.5Q268.73-28.35 269.61-30.08 270.48-31.8 272.33-33.13 274.18-34.45 277.06-35.23 279.93-36 283.98-36L283.98-36Q286.43-36 288.86-35.6 291.28-35.2 293.5-34.45 295.73-33.7 297.66-32.63 299.58-31.55 300.98-30.25L300.98-30.25 298.48-27.25Q295.63-29.7 292.08-30.98 288.53-32.25 283.98-32.25L283.98-32.25Q280.23-32.25 278.36-30.95 276.48-29.65 276.48-27.75L276.48-27.75Q276.48-26.7 276.83-25.93 277.18-25.15 278-24.48 278.83-23.8 280.18-23.23 281.53-22.65 283.53-22L283.53-22 292.98-19Q297.53-17.55 300.13-15.2 302.73-12.85 302.73-9.25ZM325.23-35L343.23-35Q346.98-35 349.95-34.18 352.93-33.35 354.98-31.78 357.03-30.2 358.13-27.93 359.23-25.65 359.23-22.75L359.23-22.75Q359.23-18.75 357.23-16 355.23-13.25 351.48-11.8L351.48-11.8 359.73 0 351.48 0 344.13-10.5 343.23-10.5 332.48-10.5 332.48 0 325.23 0 325.23-35ZM343.23-31.25L332.48-31.25 332.48-14.25 343.23-14.25Q347.18-14.25 349.33-16.32 351.48-18.4 351.48-22.75L351.48-22.75Q351.48-27.1 349.33-29.18 347.18-31.25 343.23-31.25L343.23-31.25ZM395.72-31.25L372.47-31.25 372.47-19.75 390.72-19.75 390.72-16 372.47-16 372.47-3.75 395.72-3.75 395.72 0 365.22 0 365.22-35 395.72-35 395.72-31.25ZM419.22-2.75L419.22-2.75Q422.62-2.75 425.75-3.93 428.87-5.1 431.72-7.75L431.72-7.75 434.22-4.75Q431.37-2.1 427.32-0.55 423.27 1 418.72 1L418.72 1Q414.02 1 410.25-0.2 406.47-1.4 403.8-3.75 401.12-6.1 399.67-9.55 398.22-13 398.22-17.5L398.22-17.5Q398.22-22 399.65-25.45 401.07-28.9 403.7-31.25 406.32-33.6 410.02-34.8 413.72-36 418.22-36L418.22-36Q422.77-36 426.82-34.45 430.87-32.9 433.72-30.25L433.72-30.25 431.22-27.25Q428.37-29.9 425.25-31.08 422.12-32.25 418.72-32.25L418.72-32.25Q416.02-32.25 413.67-31.38 411.32-30.5 409.62-28.7 407.92-26.9 406.95-24.13 405.97-21.35 405.97-17.5L405.97-17.5Q405.97-13.65 406.95-10.88 407.92-8.1 409.7-6.3 411.47-4.5 413.9-3.63 416.32-2.75 419.22-2.75ZM445.97-35L445.97 0 438.72 0 438.72-35 445.97-35ZM452.97-35L470.97-35Q474.72-35 477.69-34.18 480.67-33.35 482.72-31.78 484.77-30.2 485.87-27.93 486.97-25.65 486.97-22.75L486.97-22.75Q486.97-19.85 485.87-17.57 484.77-15.3 482.72-13.73 480.67-12.15 477.69-11.33 474.72-10.5 470.97-10.5L470.97-10.5 460.22-10.5 460.22 0 452.97 0 452.97-35ZM470.97-31.25L460.22-31.25 460.22-14.25 470.97-14.25Q474.92-14.25 477.09-16.32 479.27-18.4 479.27-22.75L479.27-22.75Q479.27-27.1 477.09-29.18 474.92-31.25 470.97-31.25L470.97-31.25ZM522.96-31.25L499.71-31.25 499.71-19.75 517.96-19.75 517.96-16 499.71-16 499.71-3.75 522.96-3.75 522.96 0 492.46 0 492.46-35 522.96-35 522.96-31.25ZM560.46-9.25L560.46-9.25Q560.46-7.1 559.56-5.23 558.66-3.35 556.63-1.98 554.61-0.6 551.38 0.2 548.16 1 543.46 1L543.46 1Q540.81 1 538.29 0.6 535.76 0.2 533.49-0.55 531.21-1.3 529.29-2.38 527.36-3.45 525.96-4.75L525.96-4.75 528.46-7.75Q531.31-5.3 535.11-4.03 538.91-2.75 543.46-2.75L543.46-2.75Q548.51-2.75 550.61-4.15 552.71-5.55 552.71-8L552.71-8Q552.71-9.9 551.06-11.2 549.41-12.5 545.46-13.75L545.46-13.75 535.96-16.75Q531.26-18.25 528.86-20.58 526.46-22.9 526.46-26.5L526.46-26.5Q526.46-28.35 527.34-30.08 528.21-31.8 530.06-33.13 531.91-34.45 534.79-35.23 537.66-36 541.71-36L541.71-36Q544.16-36 546.59-35.6 549.01-35.2 551.24-34.45 553.46-33.7 555.38-32.63 557.31-31.55 558.71-30.25L558.71-30.25 556.21-27.25Q553.36-29.7 549.81-30.98 546.26-32.25 541.71-32.25L541.71-32.25Q537.96-32.25 536.09-30.95 534.21-29.65 534.21-27.75L534.21-27.75Q534.21-26.7 534.56-25.93 534.91-25.15 535.74-24.48 536.56-23.8 537.91-23.23 539.26-22.65 541.26-22L541.26-22 550.71-19Q555.26-17.55 557.86-15.2 560.46-12.85 560.46-9.25Z" opacity="1" transform="matrix(1,0,0,1,0,0)" fill="#cf5c1d" class="undefined-text-0 svg-elem-1" data-fill-palette-color="primary" id="text-0"></path></svg></g></svg></g><g transform="matrix(1,0,0,1,0,32.47582197888689)"><svg viewBox="0 0 140.22197724150806 16.236912603231595" height="16.236912603231595" width="140.22197724150806"><g transform="matrix(1,0,0,1,0,0)"><svg width="140.22197724150806" viewBox="0.95 -37 323.82 37.5" height="16.236912603231595" data-palette-color="#dd9b75"><path d="M8.45 0L7.6 0Q7.1 0 6.8-0.3 6.5-0.6 6.5-1.1L6.5-1.1 6.5-23.1 2.05-23.1Q1.55-23.1 1.25-23.4 0.95-23.7 0.95-24.2L0.95-24.2 0.95-24.9Q0.95-25.4 1.25-25.7 1.55-26 2.05-26L2.05-26 6.5-26 6.5-28.85Q6.5-31.1 7.13-32.95 7.75-34.8 9.38-35.9 11-37 14.05-37L14.05-37 16.65-37Q17.15-37 17.45-36.7 17.75-36.4 17.75-35.9L17.75-35.9 17.75-35.2Q17.75-34.7 17.45-34.4 17.15-34.1 16.65-34.1L16.65-34.1 14.05-34.1Q11.4-34.1 10.48-32.68 9.55-31.25 9.55-28.6L9.55-28.6 9.55-26 16.15-26Q16.65-26 16.95-25.7 17.25-25.4 17.25-24.9L17.25-24.9 17.25-24.2Q17.25-23.7 16.95-23.4 16.65-23.1 16.15-23.1L16.15-23.1 9.55-23.1 9.55-1.1Q9.55-0.6 9.25-0.3 8.95 0 8.45 0L8.45 0ZM31.95 0.5L31.95 0.5Q28.35 0.5 25.92-1 23.5-2.5 22.22-5.1 20.95-7.7 20.85-10.9L20.85-10.9Q20.8-11.65 20.8-13 20.8-14.35 20.85-15.1L20.85-15.1Q20.95-18.35 22.22-20.93 23.5-23.5 25.92-25 28.35-26.5 31.95-26.5L31.95-26.5Q35.55-26.5 37.97-25 40.4-23.5 41.67-20.93 42.95-18.35 43.05-15.1L43.05-15.1Q43.1-14.35 43.1-13 43.1-11.65 43.05-10.9L43.05-10.9Q42.95-7.7 41.67-5.1 40.4-2.5 37.97-1 35.55 0.5 31.95 0.5ZM31.95-2.4L31.95-2.4Q35.45-2.4 37.65-4.65 39.85-6.9 40-11.15L40-11.15Q40.05-11.9 40.05-13 40.05-14.1 40-14.85L40-14.85Q39.85-19.15 37.65-21.38 35.45-23.6 31.95-23.6L31.95-23.6Q28.45-23.6 26.25-21.38 24.05-19.15 23.9-14.85L23.9-14.85Q23.85-14.1 23.85-13 23.85-11.9 23.9-11.15L23.9-11.15Q24.05-6.9 26.25-4.65 28.45-2.4 31.95-2.4ZM51.85 0L51.05 0Q50.55 0 50.25-0.3 49.95-0.6 49.95-1.1L49.95-1.1 49.95-24.85Q49.95-25.35 50.25-25.68 50.55-26 51.05-26L51.05-26 51.85-26Q52.35-26 52.67-25.68 53-25.35 53-24.85L53-24.85 53-22.55Q53.9-24.3 55.6-25.15 57.3-26 59.8-26L59.8-26 61.65-26Q62.15-26 62.45-25.7 62.75-25.4 62.75-24.9L62.75-24.9 62.75-24.2Q62.75-23.7 62.45-23.4 62.15-23.1 61.65-23.1L61.65-23.1 59.5-23.1Q56.5-23.1 54.75-21.35 53-19.6 53-16.6L53-16.6 53-1.1Q53-0.6 52.67-0.3 52.35 0 51.85 0L51.85 0ZM84.64 0L83.79 0Q83.29 0 82.99-0.3 82.69-0.6 82.69-1.1L82.69-1.1 82.69-23.1 78.24-23.1Q77.74-23.1 77.44-23.4 77.14-23.7 77.14-24.2L77.14-24.2 77.14-24.9Q77.14-25.4 77.44-25.7 77.74-26 78.24-26L78.24-26 82.69-26 82.69-28.85Q82.69-31.1 83.32-32.95 83.94-34.8 85.57-35.9 87.19-37 90.24-37L90.24-37 92.84-37Q93.34-37 93.64-36.7 93.94-36.4 93.94-35.9L93.94-35.9 93.94-35.2Q93.94-34.7 93.64-34.4 93.34-34.1 92.84-34.1L92.84-34.1 90.24-34.1Q87.59-34.1 86.67-32.68 85.74-31.25 85.74-28.6L85.74-28.6 85.74-26 92.34-26Q92.84-26 93.14-25.7 93.44-25.4 93.44-24.9L93.44-24.9 93.44-24.2Q93.44-23.7 93.14-23.4 92.84-23.1 92.34-23.1L92.34-23.1 85.74-23.1 85.74-1.1Q85.74-0.6 85.44-0.3 85.14 0 84.64 0L84.64 0ZM108.14 0.5L108.14 0.5Q104.54 0.5 102.11-1 99.69-2.5 98.41-5.1 97.14-7.7 97.04-10.9L97.04-10.9Q96.99-11.65 96.99-13 96.99-14.35 97.04-15.1L97.04-15.1Q97.14-18.35 98.41-20.93 99.69-23.5 102.11-25 104.54-26.5 108.14-26.5L108.14-26.5Q111.74-26.5 114.16-25 116.59-23.5 117.86-20.93 119.14-18.35 119.24-15.1L119.24-15.1Q119.29-14.35 119.29-13 119.29-11.65 119.24-10.9L119.24-10.9Q119.14-7.7 117.86-5.1 116.59-2.5 114.16-1 111.74 0.5 108.14 0.5ZM108.14-2.4L108.14-2.4Q111.64-2.4 113.84-4.65 116.04-6.9 116.19-11.15L116.19-11.15Q116.24-11.9 116.24-13 116.24-14.1 116.19-14.85L116.19-14.85Q116.04-19.15 113.84-21.38 111.64-23.6 108.14-23.6L108.14-23.6Q104.64-23.6 102.44-21.38 100.24-19.15 100.09-14.85L100.09-14.85Q100.04-14.1 100.04-13 100.04-11.9 100.09-11.15L100.09-11.15Q100.24-6.9 102.44-4.65 104.64-2.4 108.14-2.4ZM136.04 0.5L136.04 0.5Q132.44 0.5 130.01-1 127.59-2.5 126.31-5.1 125.04-7.7 124.94-10.9L124.94-10.9Q124.89-11.65 124.89-13 124.89-14.35 124.94-15.1L124.94-15.1Q125.04-18.35 126.31-20.93 127.59-23.5 130.01-25 132.44-26.5 136.04-26.5L136.04-26.5Q139.64-26.5 142.06-25 144.49-23.5 145.76-20.93 147.04-18.35 147.14-15.1L147.14-15.1Q147.19-14.35 147.19-13 147.19-11.65 147.14-10.9L147.14-10.9Q147.04-7.7 145.76-5.1 144.49-2.5 142.06-1 139.64 0.5 136.04 0.5ZM136.04-2.4L136.04-2.4Q139.54-2.4 141.74-4.65 143.94-6.9 144.09-11.15L144.09-11.15Q144.14-11.9 144.14-13 144.14-14.1 144.09-14.85L144.09-14.85Q143.94-19.15 141.74-21.38 139.54-23.6 136.04-23.6L136.04-23.6Q132.54-23.6 130.34-21.38 128.14-19.15 127.99-14.85L127.99-14.85Q127.94-14.1 127.94-13 127.94-11.9 127.99-11.15L127.99-11.15Q128.14-6.9 130.34-4.65 132.54-2.4 136.04-2.4ZM163.43 0.5L163.43 0.5Q160.53 0.5 158.51-0.55 156.48-1.6 155.23-3.35 153.98-5.1 153.41-7.25 152.83-9.4 152.73-11.6L152.73-11.6Q152.68-12.35 152.68-13 152.68-13.65 152.73-14.4L152.73-14.4Q152.83-16.6 153.41-18.75 153.98-20.9 155.23-22.65 156.48-24.4 158.51-25.45 160.53-26.5 163.43-26.5L163.43-26.5Q166.53-26.5 168.56-25.35 170.58-24.2 171.83-22.55L171.83-22.55 171.83-34.4Q171.83-34.9 172.13-35.2 172.43-35.5 172.93-35.5L172.93-35.5 173.78-35.5Q174.28-35.5 174.58-35.2 174.88-34.9 174.88-34.4L174.88-34.4 174.88-1.1Q174.88-0.6 174.58-0.3 174.28 0 173.78 0L173.78 0 172.93 0Q172.43 0 172.13-0.3 171.83-0.6 171.83-1.1L171.83-1.1 171.83-3.45Q170.58-1.75 168.56-0.63 166.53 0.5 163.43 0.5ZM163.73-2.4L163.73-2.4Q166.58-2.4 168.33-3.75 170.08-5.1 170.93-7.13 171.78-9.15 171.83-11.2L171.83-11.2Q171.88-11.95 171.88-13.15 171.88-14.35 171.83-15.1L171.83-15.1Q171.78-17.1 170.91-19.05 170.03-21 168.28-22.3 166.53-23.6 163.73-23.6L163.73-23.6Q160.83-23.6 159.11-22.3 157.38-21 156.63-18.9 155.88-16.8 155.78-14.4L155.78-14.4Q155.73-13 155.78-11.6L155.78-11.6Q155.88-9.2 156.63-7.1 157.38-5 159.11-3.7 160.83-2.4 163.73-2.4ZM197.93 0L197.08 0Q196.58 0 196.28-0.3 195.98-0.6 195.98-1.1L195.98-1.1 195.98-34.4Q195.98-34.9 196.28-35.2 196.58-35.5 197.08-35.5L197.08-35.5 197.93-35.5Q198.43-35.5 198.73-35.2 199.03-34.9 199.03-34.4L199.03-34.4 199.03-1.1Q199.03-0.6 198.73-0.3 198.43 0 197.93 0L197.93 0ZM217.08 0.5L217.08 0.5Q213.48 0.5 211.05-1 208.63-2.5 207.35-5.1 206.08-7.7 205.98-10.9L205.98-10.9Q205.93-11.65 205.93-13 205.93-14.35 205.98-15.1L205.98-15.1Q206.08-18.35 207.35-20.93 208.63-23.5 211.05-25 213.48-26.5 217.08-26.5L217.08-26.5Q220.68-26.5 223.1-25 225.53-23.5 226.8-20.93 228.08-18.35 228.18-15.1L228.18-15.1Q228.23-14.35 228.23-13 228.23-11.65 228.18-10.9L228.18-10.9Q228.08-7.7 226.8-5.1 225.53-2.5 223.1-1 220.68 0.5 217.08 0.5ZM217.08-2.4L217.08-2.4Q220.58-2.4 222.78-4.65 224.98-6.9 225.13-11.15L225.13-11.15Q225.18-11.9 225.18-13 225.18-14.1 225.13-14.85L225.13-14.85Q224.98-19.15 222.78-21.38 220.58-23.6 217.08-23.6L217.08-23.6Q213.58-23.6 211.38-21.38 209.18-19.15 209.03-14.85L209.03-14.85Q208.98-14.1 208.98-13 208.98-11.9 209.03-11.15L209.03-11.15Q209.18-6.9 211.38-4.65 213.58-2.4 217.08-2.4ZM244.82 0L244.02 0Q243.22 0 242.8-0.35 242.37-0.7 242.12-1.25L242.12-1.25 232.92-24.45Q232.82-24.75 232.82-25L232.82-25Q232.82-25.4 233.12-25.7 233.42-26 233.82-26L233.82-26 234.87-26Q235.37-26 235.65-25.73 235.92-25.45 235.97-25.25L235.97-25.25 244.42-3.65 252.87-25.25Q252.97-25.45 253.22-25.73 253.47-26 253.97-26L253.97-26 255.02-26Q255.42-26 255.72-25.7 256.02-25.4 256.02-25L256.02-25Q256.02-24.75 255.92-24.45L255.92-24.45 246.72-1.25Q246.52-0.7 246.07-0.35 245.62 0 244.82 0L244.82 0ZM271.52 0.5L271.52 0.5Q266.67 0.5 263.82-2.68 260.97-5.85 260.57-11L260.57-11Q260.52-11.75 260.52-13 260.52-14.25 260.57-15L260.57-15Q260.82-18.4 262.17-21 263.52-23.6 265.9-25.05 268.27-26.5 271.52-26.5L271.52-26.5Q275.02-26.5 277.47-24.95 279.92-23.4 281.25-20.5 282.57-17.6 282.57-13.6L282.57-13.6 282.57-12.85Q282.57-12.35 282.25-12.05 281.92-11.75 281.42-11.75L281.42-11.75 263.62-11.75Q263.62-11.75 263.62-11.55 263.62-11.35 263.62-11.25L263.62-11.25Q263.72-9 264.67-6.98 265.62-4.95 267.37-3.68 269.12-2.4 271.52-2.4L271.52-2.4Q273.67-2.4 275.1-3.05 276.52-3.7 277.37-4.48 278.22-5.25 278.47-5.65L278.47-5.65Q278.92-6.3 279.17-6.43 279.42-6.55 279.97-6.55L279.97-6.55 280.77-6.55Q281.22-6.55 281.55-6.28 281.87-6 281.82-5.55L281.82-5.55Q281.77-4.85 281.05-3.83 280.32-2.8 279-1.8 277.67-0.8 275.77-0.15 273.87 0.5 271.52 0.5ZM263.62-14.75L263.62-14.55 279.52-14.55 279.52-14.75Q279.52-17.25 278.57-19.25 277.62-21.25 275.82-22.43 274.02-23.6 271.52-23.6L271.52-23.6Q269.02-23.6 267.25-22.43 265.47-21.25 264.55-19.25 263.62-17.25 263.62-14.75L263.62-14.75ZM291.07 0L290.27 0Q289.77 0 289.47-0.3 289.17-0.6 289.17-1.1L289.17-1.1 289.17-24.85Q289.17-25.35 289.47-25.68 289.77-26 290.27-26L290.27-26 291.07-26Q291.57-26 291.89-25.68 292.22-25.35 292.22-24.85L292.22-24.85 292.22-22.55Q293.12-24.3 294.82-25.15 296.52-26 299.02-26L299.02-26 300.87-26Q301.37-26 301.67-25.7 301.97-25.4 301.97-24.9L301.97-24.9 301.97-24.2Q301.97-23.7 301.67-23.4 301.37-23.1 300.87-23.1L300.87-23.1 298.72-23.1Q295.72-23.1 293.97-21.35 292.22-19.6 292.22-16.6L292.22-16.6 292.22-1.1Q292.22-0.6 291.89-0.3 291.57 0 291.07 0L291.07 0ZM314.82 0.5L314.82 0.5Q312.22 0.5 310.34-0.2 308.47-0.9 307.27-1.88 306.07-2.85 305.49-3.8 304.92-4.75 304.87-5.25L304.87-5.25Q304.82-5.8 305.22-6.08 305.62-6.35 305.97-6.35L305.97-6.35 306.72-6.35Q307.02-6.35 307.24-6.25 307.47-6.15 307.82-5.7L307.82-5.7Q308.47-4.85 309.32-4.08 310.17-3.3 311.49-2.85 312.82-2.4 314.82-2.4L314.82-2.4Q317.82-2.4 319.77-3.55 321.72-4.7 321.72-6.95L321.72-6.95Q321.72-8.35 320.94-9.2 320.17-10.05 318.32-10.7 316.47-11.35 313.32-12.05L313.32-12.05Q310.17-12.8 308.49-13.85 306.82-14.9 306.22-16.28 305.62-17.65 305.62-19.25L305.62-19.25Q305.62-21 306.62-22.68 307.62-24.35 309.59-25.43 311.57-26.5 314.57-26.5L314.57-26.5Q317.02-26.5 318.74-25.85 320.47-25.2 321.57-24.28 322.67-23.35 323.19-22.45 323.72-21.55 323.77-21L323.77-21Q323.82-20.5 323.47-20.2 323.12-19.9 322.67-19.9L322.67-19.9 321.92-19.9Q321.52-19.9 321.27-20.08 321.02-20.25 320.82-20.55L320.82-20.55Q320.32-21.35 319.62-22.05 318.92-22.75 317.74-23.18 316.57-23.6 314.57-23.6L314.57-23.6Q311.57-23.6 310.12-22.38 308.67-21.15 308.67-19.25L308.67-19.25Q308.67-18.15 309.27-17.32 309.87-16.5 311.52-15.83 313.17-15.15 316.32-14.4L316.32-14.4Q319.52-13.7 321.37-12.68 323.22-11.65 323.99-10.25 324.77-8.85 324.77-6.95L324.77-6.95Q324.77-4.95 323.64-3.25 322.52-1.55 320.29-0.53 318.07 0.5 314.82 0.5Z" opacity="1" transform="matrix(1,0,0,1,0,0)" fill="#dd9b75" class="undefined-text-1 svg-elem-2" data-fill-palette-color="secondary" id="text-1"></path></svg></g></svg></g></svg></g></svg></g><g><svg viewBox="0 0 86.09110737879568 86.09110737879568" height="86.09110737879568" width="86.09110737879568"><g><svg></svg></g><g id="icon-0"><svg viewBox="0 0 86.09110737879568 86.09110737879568" height="86.09110737879568" width="86.09110737879568"><g><path d="M0 43.046c0-23.773 19.272-43.046 43.046-43.046 23.773 0 43.046 19.272 43.045 43.046 0 23.773-19.272 43.046-43.045 43.045-23.773 0-43.046-19.272-43.046-43.045zM43.046 83.722c22.465 0 40.676-18.211 40.676-40.676 0-22.465-18.211-40.676-40.676-40.677-22.465 0-40.676 18.211-40.677 40.677 0 22.465 18.211 40.676 40.677 40.676z" data-fill-palette-color="accent" fill="#dd9b75" stroke="transparent" class="svg-elem-3"></path></g><g transform="matrix(1,0,0,1,20.70335667967049,20.764603136350495)"><svg viewBox="0 0 44.6843940194547 44.561901106094695" height="44.561901106094695" width="44.6843940194547"><g><svg xmlns="http://www.w3.org/2000/svg" xmlnsXlink="http://www.w3.org/1999/xlink" version="1.1" x="0" y="0" viewBox="10.603 10.71 78.795 78.57900000000001" enable-background="new 0 0 100 100" xml:space="preserve" height="44.561901106094695" width="44.6843940194547" class="icon-wb-0" data-fill-palette-color="accent" id="wb-0"><path d="M79.236 48.382l0.658-0.06c-0.788-8.699-8.871-15.436-18.464-15.436-0.087 0-0.174 0-0.262 0.001-4.615 0.071-8.927 1.653-12.273 4.446-2.482-1.072-5.251-1.667-8.155-1.635-3.933 0.053-7.573 1.193-10.561 3.13L23.373 10.71l-2.916 0.706 7.131 29.46c-1.294 1.228-2.397 2.632-3.239 4.194L13.462 21.673l-2.72 1.266 11.839 25.443H10.603v1.5c0 21.729 17.671 39.407 39.393 39.407 21.727 0 39.402-17.678 39.402-39.407v-1.5H79.236zM61.212 35.888c0.074-0.001 0.148-0.001 0.224-0.001 7.967 0 14.678 5.438 15.44 12.495H58.938c-1.092-3.894-3.678-7.224-7.151-9.494C54.453 37.003 57.726 35.942 61.212 35.888zM40.779 38.7c6.995-0.095 13.013 3.982 15.02 9.683H26.172C28.171 42.781 34.059 38.791 40.779 38.7zM49.995 86.29c-19.565 0-35.573-15.524-36.362-34.907h42.836c0.001 0.004 0.002 0.008 0.002 0.012l0.13-0.012h29.767C85.578 70.765 69.564 86.29 49.995 86.29z" fill="#dd9b75" data-fill-palette-color="accent" class="svg-elem-4"></path></svg></g></svg></g></svg></g></svg></g></svg></g><defs></defs></svg><rect width="395.52" height="68.92640583407278" fill="none" stroke="none" visibility="hidden" class="svg-elem-5"></rect></g></svg></g></svg>